# xmcd
# 
# Track frame offsets:
#     150
#     20315
#     37515
#     57493
#     80882
#     98377
#     127103
#     146924
#     165078
#     189348
# 
# Disc length: 2659
# 
# Revision: 0
# Processed by: cddbd v1.5.2PL0 Copyright (c) Steve Scherf et al.
# Submitted via: fre:ac v1.0.31
# 
DISCID=760a610a
DTITLE=HIKS - Operation Malicorne
DYEAR=0
DGENRE=
TTITLE0=LE MARIAGE ANGLAIS
TTITLE1=LE PRINCE D'ORANGE
TTITLE2=LE GARCON JARDINIER
TTITLE3=PIERRE DE GRENOBLE
TTITLE4=LE BOUVIER
TTITLE5=L'ECOLIER ASSASSIN
TTITLE6=LE LUNEUX
TTITLE7=MARTIN
TTITLE8=LES TRANSFORMATIONS
TTITLE9=TECHNO
EXTD=
EXTT0=
EXTT1=
EXTT2=
EXTT3=
EXTT4=
EXTT5=
EXTT6=
EXTT7=
EXTT8=
EXTT9=
PLAYORDER=
